<svg width="436" height="349" viewBox="0 0 436 349" fill="none" xmlns="http://www.w3.org/2000/svg">
<rect x="-1484" width="1920" height="88" fill="url(#paint0_linear)"/>
<path d="M256 64C267.048 64 276 55.0483 276 44C276 32.9517 267.048 24 256 24C244.952 24 236 32.9517 236 44C236 55.0483 244.952 64 256 64ZM245.152 43.5667L264.435 36.1317C265.33 35.8083 266.112 36.35 265.822 37.7033L265.823 37.7017L262.54 53.17C262.297 54.2667 261.645 54.5333 260.733 54.0167L255.733 50.3317L253.322 52.655C253.055 52.9217 252.83 53.1467 252.313 53.1467L252.668 48.0583L261.935 39.6867C262.338 39.3317 261.845 39.1317 261.313 39.485L249.862 46.695L244.925 45.155C243.853 44.815 243.83 44.0833 245.152 43.5667Z" fill="#60D58E"/>
<path d="M203.828 44C203.828 46.1143 202.114 47.8281 200 47.8281C197.886 47.8281 196.172 46.1143 196.172 44C196.172 41.8857 197.886 40.1719 200 40.1719C202.114 40.1719 203.828 41.8857 203.828 44Z" fill="#60D58E"/>
<path d="M208.953 37.2271C208.769 36.7285 208.475 36.2771 208.094 35.9066C207.723 35.5251 207.272 35.2316 206.773 35.0475C206.369 34.8904 205.761 34.7033 204.641 34.6523C203.43 34.5971 203.067 34.5852 200 34.5852C196.934 34.5852 196.57 34.5968 195.359 34.652C194.24 34.7033 193.632 34.8904 193.227 35.0475C192.728 35.2316 192.277 35.5251 191.907 35.9066C191.525 36.2771 191.232 36.7281 191.047 37.2271C190.89 37.6318 190.703 38.24 190.652 39.3597C190.597 40.5706 190.585 40.9338 190.585 44.0005C190.585 47.0669 190.597 47.4301 190.652 48.6413C190.703 49.761 190.89 50.3689 191.047 50.7736C191.232 51.2725 191.525 51.7236 191.906 52.0941C192.277 52.4755 192.728 52.7691 193.227 52.9531C193.632 53.1106 194.24 53.2977 195.359 53.3486C196.57 53.4039 196.933 53.4155 200 53.4155C203.067 53.4155 203.43 53.4039 204.641 53.3486C205.76 53.2977 206.369 53.1106 206.773 52.9531C207.775 52.5668 208.567 51.7751 208.953 50.7736C209.11 50.3689 209.297 49.761 209.348 48.6413C209.404 47.4301 209.415 47.0669 209.415 44.0005C209.415 40.9338 209.404 40.5706 209.348 39.3597C209.297 38.24 209.11 37.6318 208.953 37.2271ZM200 49.8974C196.743 49.8974 194.103 47.2573 194.103 44.0002C194.103 40.743 196.743 38.103 200 38.103C203.257 38.103 205.897 40.743 205.897 44.0002C205.897 47.2573 203.257 49.8974 200 49.8974ZM206.131 39.248C205.37 39.248 204.752 38.6309 204.752 37.8698C204.752 37.1087 205.37 36.4916 206.131 36.4916C206.892 36.4916 207.509 37.1087 207.509 37.8698C207.508 38.6309 206.892 39.248 206.131 39.248Z" fill="#60D58E"/>
<path d="M200 24C188.956 24 180 32.956 180 44C180 55.044 188.956 64 200 64C211.044 64 220 55.044 220 44C220 32.956 211.044 24 200 24ZM211.415 48.7348C211.36 49.9573 211.165 50.792 210.881 51.5226C210.285 53.0652 209.065 54.2847 207.523 54.8813C206.792 55.1652 205.957 55.3593 204.735 55.4151C203.51 55.4709 203.119 55.4844 200 55.4844C196.881 55.4844 196.49 55.4709 195.265 55.4151C194.043 55.3593 193.208 55.1652 192.478 54.8813C191.711 54.593 191.017 54.141 190.443 53.5566C189.859 52.9832 189.407 52.2889 189.119 51.5226C188.835 50.7923 188.641 49.9573 188.585 48.7351C188.529 47.5101 188.516 47.1189 188.516 44C188.516 40.8811 188.529 40.4899 188.585 39.2652C188.64 38.0427 188.835 37.208 189.118 36.4774C189.407 35.7111 189.859 35.0168 190.443 34.4434C191.017 33.859 191.711 33.407 192.477 33.1187C193.208 32.8348 194.043 32.6407 195.265 32.5849C196.49 32.5291 196.881 32.5156 200 32.5156C203.119 32.5156 203.51 32.5291 204.735 32.5852C205.957 32.6407 206.792 32.8348 207.523 33.1183C208.289 33.4067 208.983 33.859 209.557 34.4434C210.141 35.0172 210.593 35.7111 210.881 36.4774C211.165 37.208 211.36 38.0427 211.415 39.2652C211.471 40.4899 211.484 40.8811 211.484 44C211.484 47.1189 211.471 47.5101 211.415 48.7348Z" fill="#60D58E"/>
<rect x="124" y="24" width="40" height="40" rx="20" fill="#60D58E"/>
<path fill-rule="evenodd" clip-rule="evenodd" d="M145.87 54.0002V45.5387H148.177L149.716 41.6926H145.87V38.6156C145.87 37.835 146.452 37.8395 147.206 37.8454C147.272 37.8459 147.339 37.8464 147.408 37.8464H148.946V34.0002H145.87C143.32 34.0002 141.254 36.0664 141.254 38.6156V41.6926H138.177V45.5387H141.254V54.0002H145.87Z" fill="white"/>
<rect opacity="0.3" x="-62" y="182.549" width="1405.09" height="322" rx="161" transform="rotate(-45 -62 182.549)" fill="#EEF1F8"/>
<rect x="-39.8228" y="181.071" width="1371.64" height="292.727" rx="146.364" transform="rotate(-45 -39.8228 181.071)" fill="#EEF1F8"/>
<rect x="1114.88" y="-580.354" width="1338.18" height="263.454" rx="131.727" transform="rotate(135 1114.88 -580.354)" fill="url(#paint1_linear)"/>
<defs>
<linearGradient id="paint0_linear" x1="-1484" y1="43.9999" x2="436" y2="43.9999" gradientUnits="userSpaceOnUse">
<stop stop-color="white"/>
<stop offset="0.488448" stop-color="white"/>
</linearGradient>
<linearGradient id="paint1_linear" x1="1114.88" y1="-448.627" x2="2453.06" y2="-448.627" gradientUnits="userSpaceOnUse">
<stop offset="0.491843" stop-color="#FDC218"/>
<stop offset="1" stop-color="#62DA86"/>
</linearGradient>
</defs>
</svg>
