<svg width="40" height="40" viewBox="0 0 40 40" fill="none" xmlns="http://www.w3.org/2000/svg">
<g filter="url(#filter0_b)">
<rect width="40" height="40" rx="8" fill="#EEF1F8" fill-opacity="0.8"/>
</g>
<path d="M11.6712 10.8322C11.6705 10.8322 11.6698 10.8322 11.6692 10.8322C11.4422 10.8322 11.2287 10.9206 11.0675 11.0814C10.9045 11.244 10.8147 11.4605 10.8147 11.691V24.569C10.8147 25.0413 11.2004 25.4264 11.6746 25.4276C13.6736 25.4324 17.0228 25.849 19.3333 28.2669V14.7897C19.3333 14.6296 19.2924 14.4792 19.2152 14.3548C17.3189 11.3008 13.6747 10.8368 11.6712 10.8322Z" fill="#60D58E"/>
<path d="M29.1852 24.569V11.6909C29.1852 11.4604 29.0955 11.2439 28.9325 11.0813C28.7713 10.9205 28.5576 10.832 28.3309 10.832C28.3301 10.832 28.3294 10.832 28.3288 10.832C26.3253 10.8368 22.6811 11.3008 20.7847 14.3547C20.7076 14.4792 20.6667 14.6295 20.6667 14.7896V28.2668C22.9772 25.8489 26.3264 25.4322 28.3254 25.4275C28.7995 25.4263 29.1852 25.0411 29.1852 24.569Z" fill="#60D58E"/>
<path d="M31.1413 13.802H30.5186V24.569C30.5186 25.7747 29.5362 26.7579 28.3286 26.7609C26.633 26.765 23.8372 27.0965 21.8572 28.9705C25.2817 28.1321 28.8917 28.6771 30.9491 29.146C31.206 29.2045 31.4714 29.144 31.6773 28.98C31.8823 28.8164 32 28.5717 32 28.3092V14.6607C32.0001 14.1872 31.6148 13.802 31.1413 13.802Z" fill="#60D58E"/>
<path d="M9.48138 24.569V13.802H8.85867C8.38529 13.802 8 14.1872 8 14.6607V28.309C8 28.5716 8.11766 28.8161 8.32275 28.9797C8.52841 29.1437 8.79362 29.2044 9.05091 29.1457C11.1083 28.6768 14.7184 28.1318 18.1427 28.9703C16.1628 27.0963 13.367 26.7649 11.6714 26.7608C10.4638 26.7579 9.48138 25.7747 9.48138 24.569Z" fill="#60D58E"/>
<defs>
<filter id="filter0_b" x="-32" y="-32" width="104" height="104" filterUnits="userSpaceOnUse" color-interpolation-filters="sRGB">
<feFlood flood-opacity="0" result="BackgroundImageFix"/>
<feGaussianBlur in="BackgroundImage" stdDeviation="16"/>
<feComposite in2="SourceAlpha" operator="in" result="effect1_backgroundBlur"/>
<feBlend mode="normal" in="SourceGraphic" in2="effect1_backgroundBlur" result="shape"/>
</filter>
</defs>
</svg>
