<svg width="40" height="40" viewBox="0 0 40 40" fill="none" xmlns="http://www.w3.org/2000/svg">
<path fill-rule="evenodd" clip-rule="evenodd" d="M20 0C8.95431 0 0 8.95431 0 20C0 31.0457 8.95431 40 20 40C31.0457 40 40 31.0457 40 20C40 8.95431 31.0457 0 20 0ZM21.7463 21.0012V31.2462H17.6063V20.9937H14.165V16.9825H17.5988V14.0387C17.5988 10.615 19.6963 8.74998 22.7513 8.74998C23.7813 8.74597 24.8108 8.79897 25.835 8.90873V12.485H23.73C22.0688 12.485 21.7463 13.2775 21.7463 14.435V16.99H25.7163L25.2025 21.0012H21.7463Z" fill="white"/>
</svg>
