<svg width="24" height="24" viewBox="0 0 24 24" fill="none" xmlns="http://www.w3.org/2000/svg">
<path d="M3.67143 2.83215C3.67078 2.83215 3.67006 2.83215 3.66941 2.83215C3.44242 2.83215 3.22892 2.92064 3.06771 3.08145C2.90472 3.24403 2.81494 3.46052 2.81494 3.69098V16.569C2.81494 17.0413 3.20064 17.4264 3.67482 17.4276C5.67386 17.4324 9.02305 17.849 11.3335 20.2669V6.78966C11.3335 6.62958 11.2926 6.4792 11.2155 6.35475C9.31913 3.30084 5.67499 2.83684 3.67143 2.83215Z" fill="#60D58E"/>
<path d="M21.1855 16.569V3.69086C21.1855 3.4604 21.0957 3.24391 20.9327 3.08132C20.7715 2.92052 20.5578 2.83203 20.3311 2.83203C20.3304 2.83203 20.3296 2.83203 20.329 2.83203C18.3255 2.8368 14.6814 3.3008 12.785 6.35471C12.7078 6.47915 12.667 6.62954 12.667 6.78962V20.2668C14.9775 17.8489 18.3266 17.4322 20.3257 17.4275C20.7998 17.4263 21.1855 17.0411 21.1855 16.569Z" fill="#60D58E"/>
<path d="M23.1416 5.802H22.5189V16.569C22.5189 17.7747 21.5365 18.7579 20.3289 18.7609C18.6333 18.765 15.8375 19.0965 13.8574 20.9705C17.2819 20.1321 20.892 20.6771 22.9493 21.146C23.2062 21.2045 23.4717 21.144 23.6775 20.98C23.8826 20.8164 24.0002 20.5717 24.0002 20.3092V6.66067C24.0003 6.18722 23.615 5.802 23.1416 5.802Z" fill="#60D58E"/>
<path d="M1.48138 16.569V5.802H0.85867C0.385294 5.802 0 6.18722 0 6.66067V20.309C0 20.5716 0.117657 20.8161 0.322749 20.9797C0.528406 21.1437 0.793619 21.2044 1.05091 21.1457C3.10829 20.6768 6.71841 20.1318 10.1427 20.9703C8.16278 19.0963 5.36697 18.7649 3.67137 18.7608C2.46385 18.7579 1.48138 17.7747 1.48138 16.569Z" fill="#60D58E"/>
</svg>
