<svg width="40" height="40" viewBox="0 0 40 40" fill="none" xmlns="http://www.w3.org/2000/svg">
<path fill-rule="evenodd" clip-rule="evenodd" d="M20 40C31.0457 40 40 31.0457 40 20C40 8.95432 31.0457 0 20 0C8.9543 0 0 8.95432 0 20C0 31.0457 8.9543 40 20 40ZM27.4486 14.5789C28.2525 14.4922 29.033 14.2695 29.7501 13.9602C29.2064 14.7523 28.5244 15.4578 27.7462 16.0273C27.7579 16.2008 27.7579 16.3742 27.7579 16.5477C27.7579 21.8328 23.7361 27.9219 16.3861 27.9219C14.122 27.9219 12.0197 27.2656 10.2478 26.1289C10.5689 26.1664 10.8783 26.1781 11.2134 26.1781C13.0814 26.1781 14.8017 25.5453 16.1751 24.4695C14.4197 24.432 12.9455 23.2812 12.4392 21.6969C12.6877 21.7321 12.9337 21.7578 13.1939 21.7578C13.549 21.7568 13.9025 21.7112 14.2462 21.6219C12.4158 21.2516 11.0423 19.6414 11.0423 17.6985V17.6492C11.5963 17.9586 12.2154 18.1328 12.8494 18.1578C11.7736 17.4383 11.0681 16.2148 11.0681 14.8274C11.0658 14.1182 11.2536 13.4214 11.6119 12.8094C13.5783 15.2352 16.5361 16.8195 19.8525 16.993C19.7915 16.6953 19.7541 16.386 19.7541 16.0766C19.7541 13.8734 21.5353 12.0781 23.7501 12.0781C24.2976 12.0769 24.8394 12.1885 25.3418 12.4058C25.8442 12.6231 26.2965 12.9416 26.6705 13.3414C27.5652 13.1684 28.4232 12.8417 29.2064 12.3758C28.9082 13.2997 28.2832 14.0831 27.4486 14.5789Z" fill="white"/>
</svg>
