<svg width="48" height="48" viewBox="0 0 48 48" fill="none" xmlns="http://www.w3.org/2000/svg">
<circle cx="24" cy="24" r="24" fill="#EEF1F8"/>
<path d="M31.5024 30.1942L17.8057 16.4975C17.4529 16.1447 16.8809 16.1447 16.5281 16.4975C16.1753 16.8502 16.1753 17.4222 16.5281 17.775L30.2248 31.4717C30.5776 31.8245 31.1496 31.8245 31.5024 31.4717C31.8552 31.1189 31.8552 30.547 31.5024 30.1942Z" fill="#353F47" stroke="#353F47" stroke-width="0.2"/>
<path d="M30.1936 16.5283L16.4969 30.225C16.1441 30.5778 16.1441 31.1498 16.4969 31.5025C16.8496 31.8553 17.4216 31.8553 17.7744 31.5025L31.4711 17.8058C31.8239 17.453 31.8239 16.8811 31.4711 16.5283C31.1183 16.1755 30.5464 16.1755 30.1936 16.5283Z" fill="#353F47" stroke="#353F47" stroke-width="0.2"/>
</svg>
