<svg width="48" height="48" viewBox="0 0 48 48" fill="none" xmlns="http://www.w3.org/2000/svg">
<circle cx="24" cy="24" r="24" fill="#EEF1F8"/>
<path d="M31.5029 30.1942L17.8061 16.4975C17.4534 16.1447 16.8814 16.1447 16.5286 16.4975C16.1758 16.8502 16.1758 17.4222 16.5286 17.775L30.2253 31.4717C30.5781 31.8245 31.1501 31.8245 31.5029 31.4717C31.8556 31.1189 31.8556 30.547 31.5029 30.1942Z" fill="#353F47" stroke="#353F47" stroke-width="0.2"/>
<path d="M30.1941 16.5283L16.4974 30.225C16.1446 30.5778 16.1446 31.1498 16.4974 31.5025C16.8501 31.8553 17.4221 31.8553 17.7749 31.5025L31.4716 17.8058C31.8244 17.453 31.8244 16.8811 31.4716 16.5283C31.1188 16.1755 30.5469 16.1755 30.1941 16.5283Z" fill="#353F47" stroke="#353F47" stroke-width="0.2"/>
</svg>
