<svg width="72" height="72" viewBox="0 0 72 72" fill="none" xmlns="http://www.w3.org/2000/svg">
<circle cx="36" cy="36" r="36" fill="#EEF1F8"/>
<path d="M47.2189 45.3264L26.6739 24.7813C26.1642 24.2716 25.3379 24.2716 24.8283 24.7813C24.3186 25.2909 24.3186 26.1173 24.8283 26.6269L45.3733 47.172C45.883 47.6816 46.7093 47.6816 47.2189 47.172C47.7286 46.6623 47.7286 45.836 47.2189 45.3264Z" fill="#353F47" stroke="#353F47" stroke-width="0.2"/>
<path d="M45.3265 24.8275L24.7814 45.3726C24.2717 45.8823 24.2717 46.7086 24.7814 47.2182C25.291 47.7279 26.1173 47.7279 26.627 47.2182L47.1721 26.6731C47.6817 26.1635 47.6817 25.3372 47.1721 24.8275C46.6624 24.3179 45.8361 24.3179 45.3265 24.8275Z" fill="#353F47" stroke="#353F47" stroke-width="0.2"/>
</svg>
