<svg width="32" height="32" viewBox="0 0 32 32" fill="none" xmlns="http://www.w3.org/2000/svg">
<g opacity="0.6" clip-path="url(#clip0)">
<path d="M8.26879 8.00005C7.98879 8.00005 7.71146 7.88405 7.51279 7.65605C7.15146 7.23872 7.19546 6.60672 7.61279 6.24538C7.83679 6.05071 7.94613 5.80672 7.92213 5.55605C7.89813 5.28538 7.71546 5.03338 7.42613 4.86538C6.56746 4.36938 6.02613 3.55605 5.93813 2.63338C5.85279 1.73605 6.21279 0.865381 6.92746 0.245381C7.34479 -0.118619 7.97546 -0.0746192 8.33946 0.344048C8.70079 0.761381 8.65679 1.39338 8.23946 1.75471C8.01546 1.94938 7.90613 2.19338 7.93013 2.44405C7.95546 2.71471 8.13679 2.96671 8.42746 3.13471C9.28479 3.63071 9.82613 4.44405 9.91413 5.36671C9.99946 6.26405 9.63946 7.13472 8.92479 7.75605C8.73413 7.91872 8.50213 8.00005 8.26879 8.00005Z" fill="#353F47"/>
<path d="M14.2244 8.23696C13.9444 8.23696 13.667 8.12096 13.4684 7.89296C13.107 7.47563 13.151 6.84363 13.5684 6.48229C13.7924 6.28763 13.9017 6.04362 13.8777 5.79296C13.8524 5.52229 13.671 5.27029 13.3804 5.10229C12.523 4.60629 11.9817 3.79296 11.8937 2.87029C11.8084 1.97296 12.1684 1.10229 12.883 0.480959C13.3004 0.118292 13.931 0.162292 14.2937 0.580959C14.655 0.998292 14.611 1.63029 14.1937 1.99163C13.9697 2.18629 13.8604 2.43029 13.8844 2.68096C13.9097 2.95163 14.091 3.20363 14.3817 3.37163C15.239 3.86762 15.7804 4.68096 15.8684 5.60363C15.9537 6.50096 15.5937 7.37162 14.879 7.99296C14.6897 8.15562 14.4577 8.23696 14.2244 8.23696Z" fill="#353F47"/>
<path d="M20.1804 7.9999C19.9004 7.9999 19.6231 7.8839 19.4244 7.6559C19.0631 7.23857 19.1071 6.60657 19.5244 6.24523C19.7484 6.05057 19.8577 5.80657 19.8337 5.5559C19.8084 5.28523 19.6271 5.03323 19.3364 4.86523C18.4791 4.36923 17.9377 3.5559 17.8497 2.63323C17.7644 1.7359 18.1244 0.865231 18.8391 0.243898C19.2564 -0.118769 19.8871 -0.0747687 20.2498 0.343898C20.6111 0.761231 20.5671 1.39323 20.1498 1.75457C19.9258 1.94923 19.8164 2.19323 19.8404 2.4439C19.8657 2.71457 20.0471 2.96657 20.3378 3.13457C21.1951 3.63057 21.7364 4.4439 21.8244 5.36657C21.9098 6.2639 21.5498 7.13457 20.8351 7.7559C20.6458 7.91857 20.4138 7.9999 20.1804 7.9999Z" fill="#353F47"/>
<path d="M23 32H3.66667C1.644 32 0 30.356 0 28.3333V27C0 26.448 0.448 26 1 26H25.6667C26.2187 26 26.6667 26.448 26.6667 27V28.3333C26.6667 30.356 25.0227 32 23 32Z" fill="#353F47"/>
<path d="M5.05616 24.6667H21.6255C22.3548 23.972 23.0002 23.184 23.5388 22.3107C23.5735 22.2693 23.6042 22.2253 23.6322 22.1787C24.7455 20.3133 25.3335 18.176 25.3335 16V11C25.3335 10.448 24.8855 10 24.3335 10H2.3335C1.7815 10 1.3335 10.448 1.3335 11V16C1.3335 19.4067 2.76816 22.48 5.05616 24.6667Z" fill="#353F47"/>
<path d="M26.6667 12.3333V14.9999C28.1374 14.9999 29.3334 16.1959 29.3334 17.6666C29.3334 18.3866 29.0587 19.0519 28.5427 19.5586C28.0521 20.0586 27.3867 20.3332 26.6667 20.3332H25.9161C25.6161 21.2079 25.2547 22.0626 24.7774 22.8612C24.7494 22.9092 24.7161 22.9532 24.6841 22.9999H26.6667C28.1081 22.9999 29.4481 22.4412 30.4281 21.4439C31.4414 20.4479 32.0001 19.1079 32.0001 17.6666C32.0001 14.7253 29.6081 12.3333 26.6667 12.3333Z" fill="#353F47"/>
</g>
<defs>
<clipPath id="clip0">
<rect width="32" height="32" fill="white"/>
</clipPath>
</defs>
</svg>
