<svg width="40" height="40" viewBox="0 0 40 40" fill="none" xmlns="http://www.w3.org/2000/svg">
<circle cx="20" cy="20" r="20" fill="#60D58E"/>
<path d="M29.7501 13.9602C29.033 14.2695 28.2525 14.4922 27.4486 14.5789C28.2832 14.0831 28.9082 13.2997 29.2064 12.3758C28.4232 12.8417 27.5652 13.1684 26.6705 13.3414C26.2965 12.9416 25.8442 12.6231 25.3418 12.4058C24.8394 12.1885 24.2976 12.0769 23.7501 12.0781C21.5353 12.0781 19.7541 13.8734 19.7541 16.0766C19.7541 16.3859 19.7916 16.6953 19.8525 16.993C16.5361 16.8195 13.5783 15.2352 11.6119 12.8094C11.2536 13.4214 11.0658 14.1182 11.0681 14.8274C11.0681 16.2149 11.7736 17.4383 12.8494 18.1578C12.2154 18.1329 11.5963 17.9586 11.0423 17.6492V17.6984C11.0423 19.6414 12.4158 21.2516 14.2462 21.6219C13.9025 21.7112 13.549 21.7568 13.1939 21.7578C12.9337 21.7578 12.6876 21.732 12.4392 21.6969C12.9455 23.2813 14.4197 24.432 16.1751 24.4695C14.8017 25.5453 13.0814 26.1781 11.2134 26.1781C10.8783 26.1781 10.5689 26.1664 10.2478 26.1289C12.0197 27.2656 14.122 27.9219 16.3861 27.9219C23.7361 27.9219 27.758 21.8328 27.758 16.5477C27.758 16.3742 27.758 16.2008 27.7462 16.0274C28.5244 15.4578 29.2064 14.7524 29.7501 13.9602Z" fill="white"/>
</svg>
