<svg width="40" height="40" viewBox="0 0 40 40" fill="none" xmlns="http://www.w3.org/2000/svg">
<path d="M23.8281 20C23.8281 22.1143 22.1143 23.8281 20 23.8281C17.8857 23.8281 16.1719 22.1143 16.1719 20C16.1719 17.8857 17.8857 16.1719 20 16.1719C22.1143 16.1719 23.8281 17.8857 23.8281 20Z" fill="#60D58E"/>
<path d="M28.9526 13.2271C28.7686 12.7285 28.475 12.2771 28.0936 11.9066C27.7231 11.5251 27.272 11.2316 26.7731 11.0475C26.3684 10.8904 25.7605 10.7033 24.6408 10.6523C23.4296 10.5971 23.0664 10.5852 20 10.5852C16.9333 10.5852 16.5701 10.5968 15.3592 10.652C14.2395 10.7033 13.6313 10.8904 13.2269 11.0475C12.728 11.2316 12.2766 11.5251 11.9064 11.9066C11.525 12.2771 11.2314 12.7281 11.0471 13.2271C10.8899 13.6318 10.7028 14.24 10.6519 15.3597C10.5966 16.5706 10.5847 16.9338 10.5847 20.0005C10.5847 23.0669 10.5966 23.4301 10.6519 24.6413C10.7028 25.761 10.8899 26.3689 11.0471 26.7736C11.2314 27.2725 11.5247 27.7236 11.9061 28.0941C12.2766 28.4755 12.7277 28.7691 13.2266 28.9531C13.6313 29.1106 14.2395 29.2977 15.3592 29.3486C16.5701 29.4039 16.933 29.4155 19.9997 29.4155C23.0667 29.4155 23.4299 29.4039 24.6405 29.3486C25.7602 29.2977 26.3684 29.1106 26.7731 28.9531C27.7747 28.5668 28.5663 27.7751 28.9526 26.7736C29.1098 26.3689 29.2969 25.761 29.3481 24.6413C29.4034 23.4301 29.415 23.0669 29.415 20.0005C29.415 16.9338 29.4034 16.5706 29.3481 15.3597C29.2972 14.24 29.1101 13.6318 28.9526 13.2271ZM20 25.8974C16.7429 25.8974 14.1025 23.2573 14.1025 20.0002C14.1025 16.743 16.7429 14.103 20 14.103C23.2568 14.103 25.8972 16.743 25.8972 20.0002C25.8972 23.2573 23.2568 25.8974 20 25.8974ZM26.1304 15.248C25.3693 15.248 24.7522 14.6309 24.7522 13.8698C24.7522 13.1087 25.3693 12.4916 26.1304 12.4916C26.8915 12.4916 27.5085 13.1087 27.5085 13.8698C27.5082 14.6309 26.8915 15.248 26.1304 15.248Z" fill="#60D58E"/>
<path d="M20 0C8.95599 0 0 8.95599 0 20C0 31.044 8.95599 40 20 40C31.044 40 40 31.044 40 20C40 8.95599 31.044 0 20 0ZM31.4151 24.7348C31.3596 25.9573 31.1652 26.792 30.8813 27.5226C30.2847 29.0652 29.0652 30.2847 27.5226 30.8813C26.7923 31.1652 25.9573 31.3593 24.7351 31.4151C23.5104 31.4709 23.1192 31.4844 20.0003 31.4844C16.8811 31.4844 16.4902 31.4709 15.2652 31.4151C14.043 31.3593 13.208 31.1652 12.4777 30.8813C11.7111 30.593 11.0172 30.141 10.4434 29.5566C9.85931 28.9832 9.40735 28.2889 9.11896 27.5226C8.83514 26.7923 8.64075 25.9573 8.58521 24.7351C8.52875 23.5101 8.51562 23.1189 8.51562 20C8.51562 16.8811 8.52875 16.4899 8.5849 15.2652C8.64044 14.0427 8.83453 13.208 9.11835 12.4774C9.40674 11.7111 9.85901 11.0168 10.4434 10.4434C11.0168 9.85901 11.7111 9.40704 12.4774 9.11865C13.208 8.83484 14.0427 8.64075 15.2652 8.5849C16.4899 8.52905 16.8811 8.51562 20 8.51562C23.1189 8.51562 23.5101 8.52905 24.7348 8.58521C25.9573 8.64075 26.792 8.83484 27.5226 9.11835C28.2889 9.40674 28.9832 9.85901 29.5569 10.4434C30.141 11.0172 30.5933 11.7111 30.8813 12.4774C31.1655 13.208 31.3596 14.0427 31.4154 15.2652C31.4713 16.4899 31.4844 16.8811 31.4844 20C31.4844 23.1189 31.4713 23.5101 31.4151 24.7348Z" fill="#60D58E"/>
</svg>
