<svg width="14" height="12" viewBox="0 0 14 12" fill="none" xmlns="http://www.w3.org/2000/svg">
<path fill-rule="evenodd" clip-rule="evenodd" d="M11.8081 0.372781C12.0481 0.134846 12.3721 0.000937375 12.7101 4.90256e-06C13.0481 -0.00092757 13.3729 0.131191 13.6142 0.367798C13.8555 0.604406 13.9941 0.92649 13.9998 1.26442C14.0056 1.60234 13.8781 1.92896 13.645 2.17365L6.79822 10.7321C6.68055 10.8588 6.53853 10.9605 6.38065 11.0311C6.22277 11.1017 6.05227 11.1398 5.87935 11.143C5.70643 11.1462 5.53465 11.1145 5.37426 11.0498C5.21387 10.9851 5.06818 10.8887 4.9459 10.7664L0.409413 6.22819C0.283031 6.11043 0.181664 5.96841 0.111358 5.81063C0.0410522 5.65284 0.00324758 5.4825 0.000200188 5.30978C-0.0028472 5.13707 0.0289251 4.96551 0.0936211 4.80533C0.158317 4.64516 0.254612 4.49966 0.37676 4.37751C0.498909 4.25537 0.644408 4.15907 0.80458 4.09437C0.964752 4.02968 1.13631 3.99791 1.30903 4.00095C1.48175 4.004 1.65208 4.04181 1.80987 4.11211C1.96766 4.18242 2.10967 4.28378 2.22744 4.41017L5.81889 7.99991L11.7755 0.410515C11.7861 0.397229 11.7976 0.384626 11.8098 0.372781H11.8081Z" fill="white"/>
</svg>
